# xmcd
#
# Track frame offsets:
#	150
#	18330
#	35566
#	49769
#	66871
#	85178
#	100958
#	118331
#	134804
#	148586
#	164117
#	181349
#
# Disc length: 2622 seconds
#
# Revision: 1
# Processed by: cddbd v1.5.2PL0 Copyright (c) Steve Scherf et al.
# Submitted via: audiograbber 1.83.01
#
DISCID=b40a3c0c
DTITLE=Darius Rucker - Learn To Live
DYEAR=2008
DGENRE=Country
TTITLE0=Forever Road
TTITLE1=All I Want
TTITLE2=Don't Think I Don't Think About It
TTITLE3=Learn To Live
TTITLE4=If I Had Wings
TTITLE5=History in the Making
TTITLE6=Alright
TTITLE7=It Won't Be Like This For
TTITLE8=Drinkin' And Dialin'
TTITLE9=I Hope They Get To Me In Time
TTITLE10=While I Still Got The Time
TTITLE11=Be Wary Of A Woman
EXTD=
EXTT0=
EXTT1=
EXTT2=
EXTT3=
EXTT4=
EXTT5=
EXTT6=
EXTT7=
EXTT8=
EXTT9=
EXTT10=
EXTT11=
PLAYORDER=
